HIERARCHY
ROOT Hips
{
	OFFSET 0.000000 0.000000 0.000000
	CHANNELS 6 Xposition Yposition Zposition Zrotation Yrotation Xrotation 
	JOINT Spine1
	{
		OFFSET -0.013727 5.003763 -0.053727
		CHANNELS 3 Zrotation Yrotation Xrotation
		JOINT Spine2
		{
			OFFSET -0.000000 7.125302 -0.029825
			CHANNELS 3 Zrotation Yrotation Xrotation
			JOINT Chest
			{
				OFFSET -0.000001 7.550065 -0.815971
				CHANNELS 3 Zrotation Yrotation Xrotation
				JOINT Neck1
				{
					OFFSET -0.181677 26.311296 -0.553349
					CHANNELS 3 Zrotation Yrotation Xrotation
					JOINT Neck2
					{
						OFFSET -0.000003 7.709399 2.302585
						CHANNELS 3 Zrotation Yrotation Xrotation
						JOINT Head
						{
							OFFSET -0.000005 6.128913 1.953709
							CHANNELS 3 Zrotation Yrotation Xrotation
							JOINT HeadEnd
							{
								OFFSET 0.003598 16.065401 -1.835380
								CHANNELS 3 Zrotation Yrotation Xrotation
								End Site
								{
									OFFSET 0.000000 0.000000 0.000000
								}
							}
							JOINT Jaw
							{
								OFFSET 0.002637 0.475592 3.094940
								CHANNELS 3 Zrotation Yrotation Xrotation
								End Site
								{
									OFFSET 0.000000 0.000000 0.000000
								}
							}
							JOINT LeftEye
							{
								OFFSET 3.206380 5.380208 7.586883
								CHANNELS 3 Zrotation Yrotation Xrotation
								End Site
								{
									OFFSET 0.000000 0.000000 0.000000
								}
							}
							JOINT RightEye
							{
								OFFSET -3.222440 5.361867 7.558234
								CHANNELS 3 Zrotation Yrotation Xrotation
								End Site
								{
									OFFSET 0.000000 0.000000 0.000000
								}
							}
						}
					}
				}
				JOINT LeftShoulder
				{
					OFFSET 1.621651 23.237164 5.113413
					CHANNELS 3 Zrotation Yrotation Xrotation
					JOINT LeftArm
					{
						OFFSET 14.919845 0.000000 -5.502326
						CHANNELS 3 Zrotation Yrotation Xrotation
						JOINT LeftForeArm
						{
							OFFSET 28.739309 0.000003 -0.002588
							CHANNELS 3 Zrotation Yrotation Xrotation
							JOINT LeftHand
							{
								OFFSET 27.093979 -0.000003 0.002609
								CHANNELS 3 Zrotation Yrotation Xrotation
								JOINT LeftHandThumb1
								{
									OFFSET 2.276481 -1.392045 3.191413
									CHANNELS 3 Zrotation Yrotation Xrotation
									JOINT LeftHandThumb2
									{
										OFFSET 4.012840 -1.828126 1.641655
										CHANNELS 3 Zrotation Yrotation Xrotation
										JOINT LeftHandThumb3
										{
											OFFSET 2.798517 0.000001 -0.000002
											CHANNELS 3 Zrotation Yrotation Xrotation
											JOINT LeftHandThumbEnd
											{
												OFFSET 3.180790 -0.000002 0.000003
												CHANNELS 3 Zrotation Yrotation Xrotation
												End Site
												{
													OFFSET 0.000000 0.000000 0.000000
												}
											}
										}
									}
								}
								JOINT LeftHandIndex1
								{
									OFFSET 3.247553 -0.531998 2.296169
									CHANNELS 3 Zrotation Yrotation Xrotation
									JOINT LeftHandIndex2
									{
										OFFSET 6.364578 0.012062 0.178600
										CHANNELS 3 Zrotation Yrotation Xrotation
										JOINT LeftHandIndex3
										{
											OFFSET 3.662366 0.000001 -0.000000
											CHANNELS 3 Zrotation Yrotation Xrotation
											JOINT LeftHandIndex4
											{
												OFFSET 2.329243 0.000003 0.000005
												CHANNELS 3 Zrotation Yrotation Xrotation
												JOINT LeftHandIndexEnd
												{
													OFFSET 2.759619 -0.180540 -0.113024
													CHANNELS 3 Zrotation Yrotation Xrotation
													End Site
													{
														OFFSET 0.000000 0.000000 0.000000
													}
												}
											}
										}
									}
								}
								JOINT LeftHandMiddle1
								{
									OFFSET 3.163499 0.240982 1.000332
									CHANNELS 3 Zrotation Yrotation Xrotation
									JOINT LeftHandMiddle2
									{
										OFFSET 6.190778 -0.259276 -1.002549
										CHANNELS 3 Zrotation Yrotation Xrotation
										JOINT LeftHandMiddle3
										{
											OFFSET 4.356523 -0.000006 0.000000
											CHANNELS 3 Zrotation Yrotation Xrotation
											JOINT LeftHandMiddle4
											{
												OFFSET 2.996875 -0.000006 0.000001
												CHANNELS 3 Zrotation Yrotation Xrotation
												JOINT LeftHandMiddleEnd
												{
													OFFSET 2.304294 -0.294572 -0.031740
													CHANNELS 3 Zrotation Yrotation Xrotation
													End Site
													{
														OFFSET 0.000000 0.000000 0.000000
													}
												}
											}
										}
									}
								}
								JOINT LeftHandRing1
								{
									OFFSET 2.882642 -0.053650 -0.322543
									CHANNELS 3 Zrotation Yrotation Xrotation
									JOINT LeftHandRing2
									{
										OFFSET 5.854543 -0.486203 -1.373841
										CHANNELS 3 Zrotation Yrotation Xrotation
										JOINT LeftHandRing3
										{
											OFFSET 4.350580 0.000001 0.000003
											CHANNELS 3 Zrotation Yrotation Xrotation
											JOINT LeftHandRing4
											{
												OFFSET 2.651324 0.000008 0.000002
												CHANNELS 3 Zrotation Yrotation Xrotation
												JOINT LeftHandRingEnd
												{
													OFFSET 1.936110 0.077685 -0.000070
													CHANNELS 3 Zrotation Yrotation Xrotation
													End Site
													{
														OFFSET 0.000000 0.000000 0.000000
													}
												}
											}
										}
									}
								}
								JOINT LeftHandPinky1
								{
									OFFSET 2.865499 -0.310004 -1.600378
									CHANNELS 3 Zrotation Yrotation Xrotation
									JOINT LeftHandPinky2
									{
										OFFSET 5.087852 -1.331142 -1.771231
										CHANNELS 3 Zrotation Yrotation Xrotation
										JOINT LeftHandPinky3
										{
											OFFSET 3.070976 0.000003 0.000001
											CHANNELS 3 Zrotation Yrotation Xrotation
											JOINT LeftHandPinky4
											{
												OFFSET 1.549667 0.000001 0.000001
												CHANNELS 3 Zrotation Yrotation Xrotation
												JOINT LeftHandPinkyEnd
												{
													OFFSET 1.944894 -0.157803 0.057219
													CHANNELS 3 Zrotation Yrotation Xrotation
													End Site
													{
														OFFSET 0.000000 0.000000 0.000000
													}
												}
											}
										}
									}
								}
							}
						}
					}
				}
				JOINT RightShoulder
				{
					OFFSET -1.380118 23.180307 5.214158
					CHANNELS 3 Zrotation Yrotation Xrotation
					JOINT RightArm
					{
						OFFSET -15.037197 0.000012 -5.545604
						CHANNELS 3 Zrotation Yrotation Xrotation
						JOINT RightForeArm
						{
							OFFSET -28.736639 0.000002 -0.002597
							CHANNELS 3 Zrotation Yrotation Xrotation
							JOINT RightHand
							{
								OFFSET -27.133617 0.000001 0.002613
								CHANNELS 3 Zrotation Yrotation Xrotation
								JOINT RightHandThumb1
								{
									OFFSET -2.274036 -1.383990 3.163127
									CHANNELS 3 Zrotation Yrotation Xrotation
									JOINT RightHandThumb2
									{
										OFFSET -4.011429 -1.827468 1.640915
										CHANNELS 3 Zrotation Yrotation Xrotation
										JOINT RightHandThumb3
										{
											OFFSET -2.794934 -0.000003 -0.000003
											CHANNELS 3 Zrotation Yrotation Xrotation
											JOINT RightHandThumbEnd
											{
												OFFSET -3.183855 0.000004 0.000000
												CHANNELS 3 Zrotation Yrotation Xrotation
												End Site
												{
													OFFSET 0.000000 0.000000 0.000000
												}
											}
										}
									}
								}
								JOINT RightHandIndex1
								{
									OFFSET -3.253270 -0.520059 2.282866
									CHANNELS 3 Zrotation Yrotation Xrotation
									JOINT RightHandIndex2
									{
										OFFSET -6.341918 0.012473 0.178265
										CHANNELS 3 Zrotation Yrotation Xrotation
										JOINT RightHandIndex3
										{
											OFFSET -3.654874 -0.000010 -0.000001
											CHANNELS 3 Zrotation Yrotation Xrotation
											JOINT RightHandIndex4
											{
												OFFSET -2.327586 0.000000 0.000001
												CHANNELS 3 Zrotation Yrotation Xrotation
												JOINT RightHandIndexEnd
												{
													OFFSET -2.761789 -0.180658 -0.113079
													CHANNELS 3 Zrotation Yrotation Xrotation
													End Site
													{
														OFFSET 0.000000 0.000000 0.000000
													}
												}
											}
										}
									}
								}
								JOINT RightHandMiddle1
								{
									OFFSET -3.168107 0.246594 1.001030
									CHANNELS 3 Zrotation Yrotation Xrotation
									JOINT RightHandMiddle2
									{
										OFFSET -6.180830 -0.258835 -1.000896
										CHANNELS 3 Zrotation Yrotation Xrotation
										JOINT RightHandMiddle3
										{
											OFFSET -4.348905 -0.000001 -0.000000
											CHANNELS 3 Zrotation Yrotation Xrotation
											JOINT RightHandMiddle4
											{
												OFFSET -3.000243 -0.000004 -0.000002
												CHANNELS 3 Zrotation Yrotation Xrotation
												JOINT RightHandMiddleEnd
												{
													OFFSET -2.302518 -0.294371 -0.031706
													CHANNELS 3 Zrotation Yrotation Xrotation
													End Site
													{
														OFFSET 0.000000 0.000000 0.000000
													}
												}
											}
										}
									}
								}
								JOINT RightHandRing1
								{
									OFFSET -2.885694 -0.067952 -0.308858
									CHANNELS 3 Zrotation Yrotation Xrotation
									JOINT RightHandRing2
									{
										OFFSET -5.854197 -0.486133 -1.373732
										CHANNELS 3 Zrotation Yrotation Xrotation
										JOINT RightHandRing3
										{
											OFFSET -4.338814 -0.000003 -0.000001
											CHANNELS 3 Zrotation Yrotation Xrotation
											JOINT RightHandRing4
											{
												OFFSET -2.654905 -0.000005 0.000004
												CHANNELS 3 Zrotation Yrotation Xrotation
												JOINT RightHandRingEnd
												{
													OFFSET -1.933570 0.077523 -0.000052
													CHANNELS 3 Zrotation Yrotation Xrotation
													End Site
													{
														OFFSET 0.000000 0.000000 0.000000
													}
												}
											}
										}
									}
								}
								JOINT RightHandPinky1
								{
									OFFSET -2.866429 -0.342798 -1.584145
									CHANNELS 3 Zrotation Yrotation Xrotation
									JOINT RightHandPinky2
									{
										OFFSET -5.091369 -1.332055 -1.772385
										CHANNELS 3 Zrotation Yrotation Xrotation
										JOINT RightHandPinky3
										{
											OFFSET -3.062666 -0.000005 0.000000
											CHANNELS 3 Zrotation Yrotation Xrotation
											JOINT RightHandPinky4
											{
												OFFSET -1.546527 0.000005 -0.000002
												CHANNELS 3 Zrotation Yrotation Xrotation
												JOINT RightHandPinkyEnd
												{
													OFFSET -1.945122 -0.157721 0.057211
													CHANNELS 3 Zrotation Yrotation Xrotation
													End Site
													{
														OFFSET 0.000000 0.000000 0.000000
													}
												}
											}
										}
									}
								}
							}
						}
					}
				}
			}
		}
	}
	JOINT LeftLeg
	{
		OFFSET 10.043214 -8.434526 2.595655
		CHANNELS 3 Zrotation Yrotation Xrotation
		JOINT LeftShin
		{
			OFFSET -0.000001 -43.221752 -0.802913
			CHANNELS 3 Zrotation Yrotation Xrotation
			JOINT LeftFoot
			{
				OFFSET 0.000002 -42.155094 -3.481523
				CHANNELS 3 Zrotation Yrotation Xrotation
				JOINT LeftToeBase
				{
					OFFSET 0.000000 -5.059474 13.231529
					CHANNELS 3 Zrotation Yrotation Xrotation
					JOINT LeftToeEnd
					{
						OFFSET -0.009607 -1.647615 6.513017
						CHANNELS 3 Zrotation Yrotation Xrotation
						End Site
						{
							OFFSET 0.000000 0.000000 0.000000
						}
					}
				}
			}
		}
	}
	JOINT RightLeg
	{
		OFFSET -10.047277 -8.295259 2.620317
		CHANNELS 3 Zrotation Yrotation Xrotation
		JOINT RightShin
		{
			OFFSET 0.000000 -43.362209 -0.805556
			CHANNELS 3 Zrotation Yrotation Xrotation
			JOINT RightFoot
			{
				OFFSET 0.000002 -42.117393 -3.478399
				CHANNELS 3 Zrotation Yrotation Xrotation
				JOINT RightToeBase
				{
					OFFSET -0.000001 -5.079609 13.284196
					CHANNELS 3 Zrotation Yrotation Xrotation
					JOINT RightToeEnd
					{
						OFFSET 0.009532 -1.634383 6.460591
						CHANNELS 3 Zrotation Yrotation Xrotation
						End Site
						{
							OFFSET 0.000000 0.000000 0.000000
						}
					}
				}
			}
		}
	}
}
MOTION
Frames: 4
Frame Time: 0.033333
27.251629 100.816895 51.330185 -135.599716 18.009386 -141.972015 -3.162500 -2.198649 3.936973 -0.067259 -0.894185 -0.430614 3.328901 -3.584419 22.425667 37.355743 -19.363123 17.893705 -4.422868 -14.769669 -2.537317 9.177793 -20.350309 -6.251904 0.000079 -0.000020 0.000007 0.106654 0.053379 0.026568 0.711776 -3.562645 -10.629636 -0.516058 3.675409 -10.461717 9.195656 -17.641203 11.600905 -35.608047 -51.986656 11.368572 179.735947 -44.145294 179.412460 5.560619 -13.082242 15.999654 -5.882100 9.861277 0.702590 -10.936858 -0.360575 7.156198 0.000001 8.774810 -0.000002 -16.187412 17.168413 5.178487 -1.844030 2.498502 -2.507276 -10.163590 4.678939 4.621105 -20.975994 -0.000003 0.000003 -21.226254 2.451692 -3.593992 -0.000002 -0.000006 -0.000000 -1.362680 2.240796 -0.746322 -21.334892 0.584908 3.008322 -13.821195 -0.000003 0.000003 -23.887131 -0.249077 -0.839480 -59.391724 4.098475 -1.273843 -0.294025 1.679686 0.833256 -14.218194 0.093214 1.300580 -34.212006 -0.287562 0.967173 -20.033180 0.964535 1.212843 0.000000 0.000000 0.000000 -3.440385 0.788232 0.501655 -15.928167 -3.167306 2.999705 -6.338817 -0.000001 0.000002 -18.123413 3.648176 -4.905660 -0.000004 0.000000 -0.000002 9.764582 0.219616 16.988766 48.787292 4.876504 -2.459181 177.976120 38.728703 177.990768 -8.609055 5.355319 12.640380 2.243541 -5.255034 -3.180155 14.282875 -0.826595 6.952495 -0.000001 -12.690591 0.000000 15.680578 -16.703777 2.642881 1.665665 -1.955920 -2.878296 4.727794 -4.170585 4.993918 11.020511 0.000001 -0.000001 12.109035 -3.735712 -2.866781 -0.000002 0.000001 -0.000000 1.291985 -1.928548 -1.498087 14.800113 0.567467 3.865602 14.242553 -1.341737 -6.660649 19.631939 0.143925 -0.648245 48.602604 -0.219805 -5.812061 0.353029 -1.511150 -0.031940 20.222767 3.684304 2.316627 18.787245 0.000003 -0.000001 10.751610 -0.479869 1.397902 -0.000001 -0.000000 0.000000 3.273804 0.305947 -0.580110 21.486788 11.830362 2.266133 8.162916 0.000001 -0.000001 18.399054 -3.798981 -4.940569 0.000003 0.000000 -0.000000 29.712673 22.425419 -43.519970 -0.504330 -0.952952 32.691193 1.355166 -10.553097 -7.746976 1.506782 -1.480202 0.351481 0.000000 -0.000000 0.000002 -29.702675 -21.100418 -44.806545 2.993619 2.894853 95.819000 15.985377 -13.299423 2.500606 -2.387697 1.035455 -0.112886 0.000001 0.000000 -0.000000 
27.186447 100.189461 51.124012 -137.177490 20.029919 -142.471756 -3.796841 -2.140455 3.563481 -0.293106 -0.957208 -0.702847 2.640910 -3.518019 21.662149 38.521896 -19.633907 16.486107 -4.396039 -15.496872 -2.463463 9.462308 -20.902578 -6.829371 0.000079 -0.000021 0.000006 0.100637 0.021090 0.012889 0.702899 -3.581453 -10.637633 -0.514303 3.649028 -10.511977 8.735909 -17.736780 11.795824 -37.740662 -50.979710 13.630078 179.992584 -44.779930 179.335220 5.825854 -13.262645 17.026621 -5.882101 9.861278 0.702590 -10.936858 -0.360575 7.156197 0.000002 8.774812 -0.000002 -16.274792 17.310408 5.124123 -1.844031 2.498503 -2.507275 -10.163589 4.678940 4.621105 -20.975992 -0.000003 0.000003 -21.226250 2.451694 -3.593992 0.000000 -0.000007 0.000000 -1.362680 2.240796 -0.746323 -21.334892 0.584908 3.008322 -13.821195 -0.000002 0.000003 -23.887125 -0.249076 -0.839480 -59.236317 4.118692 -1.175900 -0.294024 1.679686 0.833255 -14.218190 0.093215 1.300579 -34.212006 -0.287562 0.967171 -20.033176 0.964536 1.212842 -0.000003 0.000000 0.000000 -3.440386 0.788233 0.501656 -15.928167 -3.167306 2.999705 -6.338815 -0.000001 0.000002 -18.123411 3.648178 -4.905660 -0.000005 0.000000 -0.000002 9.304046 -0.133624 16.346361 48.807049 2.523247 -3.488919 178.174561 38.263599 178.081635 -8.058943 5.224123 11.979671 2.243540 -5.255033 -3.180155 14.282878 -0.826595 6.952495 -0.000002 -12.690588 0.000001 15.693742 -16.714493 2.576731 1.665665 -1.955919 -2.878297 4.727794 -4.170584 4.993917 11.020513 0.000003 -0.000001 12.109035 -3.735710 -2.866781 -0.000002 0.000001 -0.000000 1.291985 -1.928547 -1.498087 14.800114 0.567467 3.865603 14.242554 -1.341735 -6.660648 19.631941 0.143927 -0.648243 48.572681 -0.075819 -5.836576 0.353029 -1.511149 -0.031941 20.222771 3.684306 2.316629 18.787249 0.000004 0.000001 10.751612 -0.479868 1.397904 0.000001 -0.000000 0.000000 3.273805 0.305948 -0.580110 21.486792 11.830362 2.266130 8.162916 0.000002 -0.000000 18.399057 -3.798978 -4.940569 0.000003 0.000001 -0.000001 27.244249 22.495750 -43.985268 -0.433566 -0.859481 34.969234 1.953997 -9.095478 -9.505093 1.489194 -1.403384 0.188670 -0.000000 0.000001 0.000002 -27.901752 -21.821669 -39.780106 2.958190 2.747037 94.098274 16.524536 -13.664635 6.261865 -2.426633 1.059232 0.241817 0.000000 0.000000 -0.000002 
26.985264 99.516685 50.732498 -137.989761 23.155483 -142.769958 -4.337731 -2.011512 3.179377 -0.585848 -0.915264 -0.966074 1.823771 -3.380149 21.025593 39.115837 -19.737852 15.406491 -4.272932 -15.862338 -2.396933 9.563247 -21.313671 -7.129354 0.000078 -0.000021 0.000006 0.112032 0.010444 -0.022952 0.712120 -3.590827 -10.686241 -0.508075 3.624498 -10.599337 8.165609 -17.741413 12.174837 -39.389896 -49.770145 15.088189 179.924133 -45.287067 179.445190 6.199368 -13.217021 17.788942 -5.882100 9.861278 0.702589 -10.936860 -0.360575 7.156198 0.000002 8.774813 -0.000001 -16.207413 17.436216 5.162154 -1.844031 2.498502 -2.507276 -10.163589 4.678937 4.621104 -20.976000 -0.000005 0.000002 -21.226255 2.451691 -3.593992 -0.000001 -0.000007 0.000000 -1.362681 2.240796 -0.746322 -21.334896 0.584907 3.008320 -13.821197 -0.000004 0.000003 -23.887131 -0.249079 -0.839479 -58.975880 4.021101 -1.059481 -0.294024 1.679686 0.833256 -14.218192 0.093214 1.300579 -34.212006 -0.287565 0.967170 -20.033176 0.964534 1.212842 -0.000001 0.000000 0.000000 -3.440385 0.788232 0.501655 -15.928169 -3.167307 2.999704 -6.338817 -0.000001 0.000001 -18.123413 3.648175 -4.905662 -0.000006 -0.000000 -0.000002 8.824560 -0.358194 15.829865 48.758049 0.236977 -4.385962 178.209961 38.100166 178.112396 -7.714414 5.090685 11.161799 2.243539 -5.255032 -3.180156 14.282877 -0.826591 6.952497 -0.000003 -12.690592 -0.000001 15.689460 -16.775141 2.548084 1.665665 -1.955921 -2.878296 4.727793 -4.170582 4.993917 11.020511 0.000002 -0.000001 12.109034 -3.735709 -2.866778 -0.000001 0.000000 0.000002 1.291984 -1.928548 -1.498087 14.800111 0.567469 3.865602 14.242553 -1.341732 -6.660650 19.631937 0.143928 -0.648242 48.546635 0.011469 -5.919130 0.353029 -1.511150 -0.031939 20.222769 3.684306 2.316627 18.787247 0.000004 0.000001 10.751610 -0.479867 1.397904 0.000001 0.000001 0.000000 3.273804 0.305946 -0.580111 21.486790 11.830361 2.266132 8.162918 0.000002 -0.000001 18.399052 -3.798978 -4.940567 0.000003 0.000000 0.000000 25.285168 22.563316 -43.554550 -0.342904 -0.754196 37.331169 2.854996 -6.601581 -11.329307 1.473990 -1.377889 0.055032 0.000000 -0.000000 0.000002 -25.661476 -22.756231 -35.723320 3.041233 2.510774 92.074783 17.820871 -13.675759 10.208899 -2.409030 1.131917 0.592283 0.000001 -0.000000 -0.000000 
26.655827 98.838058 50.151016 -138.055679 27.259361 -142.743286 -4.771596 -1.855297 2.788520 -0.829676 -0.891077 -1.243544 0.960432 -3.125342 20.377411 39.008991 -19.794981 14.854433 -4.094989 -15.939421 -2.364671 9.378543 -21.450388 -7.202865 0.000078 -0.000020 0.000006 0.111663 -0.015614 -0.023678 0.714676 -3.614290 -10.692975 -0.515382 3.598799 -10.644827 7.479337 -17.566832 12.660144 -41.018837 -48.372635 16.270021 179.590546 -45.598686 179.691849 6.665780 -12.973052 18.565327 -5.882101 9.861279 0.702589 -10.936858 -0.360575 7.156196 0.000001 8.774813 -0.000001 -16.142107 17.569103 5.268514 -1.844031 2.498502 -2.507276 -10.163589 4.678940 4.621104 -20.975994 -0.000004 0.000002 -21.226246 2.451693 -3.593994 0.000000 -0.000006 -0.000000 -1.362680 2.240797 -0.746322 -21.334888 0.584909 3.008321 -13.821197 -0.000003 0.000002 -23.887131 -0.249078 -0.839480 -58.776112 3.875470 -0.888998 -0.294025 1.679686 0.833255 -14.218190 0.093215 1.300580 -34.211998 -0.287562 0.967170 -20.033178 0.964535 1.212842 -0.000001 0.000000 0.000000 -3.440385 0.788232 0.501656 -15.928167 -3.167306 2.999705 -6.338817 -0.000001 0.000001 -18.123411 3.648176 -4.905662 -0.000004 -0.000000 -0.000002 8.236672 -0.534302 15.513840 48.451141 -1.793496 -4.954793 178.190781 38.129150 178.201355 -7.356886 4.912201 10.268019 2.243539 -5.255032 -3.180156 14.282875 -0.826594 6.952494 -0.000003 -12.690588 0.000001 15.665332 -16.802820 2.526151 1.665665 -1.955918 -2.878298 4.727793 -4.170582 4.993918 11.020510 0.000003 -0.000000 12.109030 -3.735708 -2.866780 0.000000 0.000000 0.000001 1.291984 -1.928549 -1.498088 14.800114 0.567466 3.865602 14.242553 -1.341734 -6.660649 19.631937 0.143929 -0.648242 48.505493 0.041818 -6.002772 0.353028 -1.511147 -0.031939 20.222767 3.684307 2.316628 18.787243 0.000005 0.000001 10.751607 -0.479867 1.397903 0.000000 0.000000 0.000002 3.273804 0.305948 -0.580112 21.486792 11.830364 2.266131 8.162915 0.000002 0.000001 18.399054 -3.798978 -4.940566 0.000002 0.000001 -0.000000 23.887772 22.648901 -42.181725 -0.202902 -0.580817 39.538956 3.667233 -3.321702 -13.271322 1.461937 -1.383499 -0.035307 -0.000000 -0.000002 0.000002 -23.501455 -23.310863 -32.252522 3.119878 2.320167 89.597031 19.705683 -13.324631 13.397283 -2.384375 1.213543 1.027381 -0.000002 -0.000000 -0.000003 
